<?xml version="1.0" encoding="UTF-8"?>
<svg version="1.1" xmlns="http://www.w3.org/2000/svg" width="307" height="277">
<path d="M0 0 C101.31 0 202.62 0 307 0 C307 91.41 307 182.82 307 277 C205.69 277 104.38 277 0 277 C0 185.59 0 94.18 0 0 Z " fill="#001B33" transform="translate(0,0)"/>
<path d="M0 0 C0.87269531 0.71800781 1.74539062 1.43601562 2.64453125 2.17578125 C5.05285479 4.04093397 7.18568436 4.89106244 10 6 C34.68710471 23.32646042 58.60496355 49.75889481 70.10546875 77.90625 C71.12419583 80.29069417 72.33703154 82.52785084 73.5625 84.8125 C76.36551746 90.30606818 77.73023998 95.99186724 79 102 C79.99 101.34 80.98 100.68 82 100 C81.70222656 100.495 81.40445313 100.99 81.09765625 101.5 C79.60916473 104.89015863 79.05818735 108.3743977 78.4375 112 C77.0749669 119.71403354 77.0749669 119.71403354 76.41015625 122.25 C75.84787245 124.3495071 75.84787245 124.3495071 76 128 C74.86328125 129.74609375 74.86328125 129.74609375 73.3125 131.4375 C72.75820312 132.04722656 72.20390625 132.65695313 71.6328125 133.28515625 C69.46031029 135.56680331 67.25407181 137.79834847 65 140 C64.04673828 140.98613281 64.04673828 140.98613281 63.07421875 141.9921875 C57.39995552 147.81763004 51.37402329 152.95888238 45 158 C44.05898437 158.78117188 43.11796875 159.56234375 42.1484375 160.3671875 C24.24477309 174.8474122 -0.18689702 189.97862067 -24 189 C-43.26752378 185.11477916 -55.14289045 174.16284794 -67 159 C-67.87137209 157.93819121 -68.74515235 156.87835498 -69.62109375 155.8203125 C-85.90221112 135.9628782 -101.99248622 110.94267261 -101.23828125 84.38671875 C-100.90525923 81.05103913 -100.1218294 78.15514519 -99 75 C-100.98 77.31 -102.96 79.62 -105 82 C-105.33 81.34 -105.66 80.68 -106 80 C-101.67484408 74.24239694 -97.11803116 68.79375864 -92.2578125 63.48046875 C-90.1117254 61.1227433 -88.02433246 58.7225869 -85.9375 56.3125 C-82.22709386 52.15278686 -78.30104964 48.53796018 -74 45 C-73.25266602 44.36819824 -73.25266602 44.36819824 -72.49023438 43.72363281 C-53.48175215 27.67475563 -32.48886542 14.41820603 -8 9 C-8.66 8.67 -9.32 8.34 -10 8 C-10.495 6.515 -10.495 6.515 -11 5 C-24.21822711 -4.83880982 -43.15065051 -15.07022724 -60 -13 C-64.17019769 -12.04133386 -66.6062212 -10.4766796 -69.375 -7.125 C-72.17833644 -1.73396838 -72.13199395 3.33067497 -72.0625 9.3125 C-72.05798828 10.05306641 -72.05347656 10.79363281 -72.04882812 11.55664062 C-72.03712175 13.37112899 -72.01918898 15.18557534 -72 17 C-72.66 17 -73.32 17 -74 17 C-77.64056857 9.26379178 -78.29272319 1.20986936 -76.22265625 -7.1328125 C-74.90573099 -10.22106535 -73.53683725 -11.93827675 -71.125 -14.25 C-70.44695312 -14.91515625 -69.76890625 -15.5803125 -69.0703125 -16.265625 C-50.47286709 -31.84537172 -16.01098275 -11.2301578 0 0 Z " fill="#00CBD6" transform="translate(166,34)"/>
<path d="M0 0 C4.44002593 1.56768688 6.83183287 5.10670115 9.625 8.6875 C10.15206543 9.35813477 10.67913086 10.02876953 11.22216797 10.71972656 C24.69514709 28.07516309 41.3462759 50.59150903 40.53125 73.58203125 C39.62398888 77.71140356 37.20663881 80.35826129 34 83 C27.85629881 86.0718506 17.40984075 84.83181483 10.94921875 83.01171875 C-3.31167146 78.24499656 -17.06371116 70.05718399 -29 61 C-27.68077147 57.21467592 -26.07462773 54.68689983 -23.4375 51.6875 C-17.96682553 45.04097929 -13.98870247 37.59425604 -10 30 C-9.65026123 29.33782471 -9.30052246 28.67564941 -8.94018555 27.9934082 C-6.65513757 23.56145794 -4.87795252 19.17336426 -3.3125 14.4375 C-2.89613281 13.19871094 -2.47976562 11.95992187 -2.05078125 10.68359375 C-1.01865403 7.06539312 -0.4362368 3.72479118 0 0 Z " fill="#001F37" transform="translate(191,72)"/>
<path d="M0 0 C3.51203742 2.37062526 5.14686631 3.62809894 6.5 7.6875 C7.05261006 15.95539666 6.78051345 23.06782135 3.5 30.6875 C3.12488281 31.65558594 2.74976563 32.62367187 2.36328125 33.62109375 C-0.07060185 39.77106336 -2.9335852 45.14195623 -6.5 50.6875 C-7.39396143 52.11330985 -8.28588699 53.54039816 -9.17578125 54.96875 C-11.6171875 58.875 -14.05859375 62.78125 -16.5 66.6875 C-20.49760905 65.83558544 -22.93569169 64.1101416 -26.25 61.6875 C-42.11990939 50.41390573 -58.85483442 41.44315424 -78.5 39.6875 C-78.5 38.6975 -78.5 37.7075 -78.5 36.6875 C-75.14473264 33.33920825 -71.26203687 30.56498166 -67.5 27.6875 C-66.93265137 27.24809082 -66.36530273 26.80868164 -65.78076172 26.35595703 C-21.26109339 -7.97291002 -21.26109339 -7.97291002 0 0 Z " fill="#001F37" transform="translate(171.5,58.3125)"/>
<path d="M0 0 C4.08599685 1.40617189 6.95211223 3.36753555 10.3125 6.0625 C20.57564012 13.89888778 31.65092925 20.1261673 44 24 C44.78890625 24.28488281 45.5778125 24.56976563 46.390625 24.86328125 C51.28293744 26.61885595 55.82184426 27.52925857 61 28 C59.66898295 31.99305114 57.04568581 33.60188721 53.8125 36.0625 C53.18537109 36.54565674 52.55824219 37.02881348 51.91210938 37.52661133 C49.94969234 39.02905624 47.97715267 40.51701233 46 42 C45.40364746 42.44891602 44.80729492 42.89783203 44.19287109 43.36035156 C35.826071 49.61612201 27.18863227 55.03629161 18 60 C17.26265625 60.40992188 16.5253125 60.81984375 15.765625 61.2421875 C6.07892307 66.40576001 -3.95490734 69.50683392 -15 68 C-18.21618768 66.81731185 -20.21973236 65.18795073 -22.12890625 62.28125 C-24.87228332 55.09680063 -23.56412773 45.10162828 -21 38 C-20.65453125 36.97261719 -20.3090625 35.94523437 -19.953125 34.88671875 C-15.61757438 23.01496103 -9.35217012 8.72251566 0 0 Z " fill="#001D34" transform="translate(155,141)"/>
<path d="M0 0 C7.88418528 3.46195133 15.29576844 7.53593109 22.5625 12.15234375 C23.30725586 12.620354 24.05201172 13.08836426 24.81933594 13.57055664 C26.60490297 14.74209689 28.31176523 16.03193721 30 17.33984375 C30 20.33984375 30 20.33984375 28.34765625 22.03125 C27.57292969 22.79308594 26.79820312 23.55492187 26 24.33984375 C24.0501838 26.92050417 22.24766575 29.59751672 20.4375 32.27734375 C19.95603516 32.98052734 19.47457031 33.68371094 18.97851562 34.40820312 C15.4902959 39.52777732 12.20708443 44.45615856 10 50.27734375 C8.90051624 53.11837622 7.78340195 55.75637847 6.375 58.46484375 C3.3523205 64.78499179 2.60686043 71.4407989 2 78.33984375 C-0.97501234 77.02515491 -2.81759484 75.71205708 -4.8828125 73.20703125 C-5.40512451 72.5742627 -5.92743652 71.94149414 -6.46557617 71.28955078 C-7.01318604 70.60489746 -7.5607959 69.92024414 -8.125 69.21484375 C-8.69903564 68.50054199 -9.27307129 67.78624023 -9.86450195 67.05029297 C-15.03944804 60.49224455 -19.55741001 53.6565434 -23.76757812 46.44775391 C-24.6190182 44.99146754 -25.48035213 43.54093682 -26.34960938 42.09521484 C-33.99950425 29.35528061 -40.15107579 16.70467084 -38 1.33984375 C-30.36873755 -12.28741063 -11.14168815 -4.69641292 0 0 Z " fill="#001D34" transform="translate(117,115.66015625)"/>
<path d="M0 0 C0.85851562 0.44859375 0.85851562 0.44859375 1.734375 0.90625 C5.3631801 2.65808694 9.15650633 3.81004418 13 5 C13.67546875 5.21011719 14.3509375 5.42023438 15.046875 5.63671875 C19.48293875 6.88768873 23.2335872 7.07718164 27.82421875 6.58203125 C31.17524119 7.22576447 32.63779205 9.58448412 35 12 C37.78190613 13.98870477 40.69157557 15.74477428 43.625 17.5 C44.42534668 17.98267334 45.22569336 18.46534668 46.05029297 18.96264648 C57.70930584 25.90320765 69.09445356 31.63713555 83 30 C87.26746098 28.7015127 90.15368473 27.06471921 92.9375 23.5625 C95.04029853 18.49104472 95.13003322 13.61613231 95.0625 8.1875 C95.05798828 7.49462891 95.05347656 6.80175781 95.04882812 6.08789062 C95.03713156 4.39188932 95.01919924 2.69593297 95 1 C95.66 1 96.32 1 97 1 C100.00314104 8.71206619 100.90939598 19.84071536 97.5 27.625 C94.43556888 32.57861446 89.47034118 36.17655294 84 38 C75.53291265 38.409084 67.1554173 38.56951504 59 36 C57.93458984 35.67322266 57.93458984 35.67322266 56.84765625 35.33984375 C55.34322347 34.85599279 53.84574808 34.35004881 52.35546875 33.82421875 C50.76661268 33.26825087 49.16388555 32.75063253 47.55078125 32.26953125 C33.59388487 27.82585572 20.57552562 18.10140687 9.38671875 8.8359375 C7.0583569 6.83735635 7.0583569 6.83735635 4 6 C2.60287726 4.04402816 1.26220093 2.04563599 0 0 Z " fill="#00536B" transform="translate(121,215)"/>
<path d="M0 0 C1 3 1 3 0.0703125 5.16796875 C-1.33876015 8.89635442 -1.21612244 12.39073025 -1.125 16.3125 C-1.11597656 17.05306641 -1.10695313 17.79363281 -1.09765625 18.55664062 C-1.07424213 20.37123467 -1.03837615 22.18566071 -1 24 C-1.66 23.34 -2.32 22.68 -3 22 C-4.60561826 24.39487151 -6.20953407 26.79085413 -7.8125 29.1875 C-8.26431641 29.86103516 -8.71613281 30.53457031 -9.18164062 31.22851562 C-14.07254234 38.54701819 -17.76642754 45.79170067 -21 54 C-21.66 54 -22.32 54 -23 54 C-25.55629372 66.82404867 -25.55629372 66.82404867 -22 79 C-18.49385282 83.57746993 -15.53594677 84.73800606 -10 86 C-7.1792736 86.2142366 -4.38908307 86.19223802 -1.5625 86.125 C-0.83095703 86.11597656 -0.09941406 86.10695313 0.65429688 86.09765625 C2.43634298 86.07436153 4.21821759 86.0385019 6 86 C2.11876813 90.58462664 -3.42281211 90.55033473 -9.08203125 91.26171875 C-15.34604431 91.63169101 -21.90322185 89.50306033 -26.79296875 85.55078125 C-28 84 -28 84 -28 81 C-28.66 81 -29.32 81 -30 81 C-35.36785172 63.46501773 -30.40637508 45.01425544 -22 29 C-10.64043419 7.88014473 -10.64043419 7.88014473 -5 6 C-3.57142881 4.59894424 -3.57142881 4.59894424 -2.3125 2.9375 C-1.549375 1.968125 -0.78625 0.99875 0 0 Z " fill="#005068" transform="translate(67,108)"/>
<path d="M0 0 C3.34276793 0.28387457 4.68986708 0.6707452 7.02734375 3.15234375 C7.97287109 4.53099609 7.97287109 4.53099609 8.9375 5.9375 C9.62070313 6.93136719 10.30390625 7.92523438 11.0078125 8.94921875 C15.23295565 15.41948698 19.24837777 21.74572321 22 29 C22.52787109 30.34191406 22.52787109 30.34191406 23.06640625 31.7109375 C25.63427664 38.67192414 26.52438162 44.60039272 26 52 C20.91137183 54.54431408 14.03009527 53.63887567 8.78515625 51.98828125 C5.8117187 50.73966246 2.90798841 49.39314885 0 48 C-1.37264151 47.47298232 -2.74722793 46.95095543 -4.125 46.4375 C-7 45 -7 45 -8.4375 42.8125 C-8.623125 42.214375 -8.80875 41.61625 -9 41 C-4.6852555 41.56002583 -1.29644456 42.64190506 2.625 44.5 C8.75137996 47.16397725 14.36331126 47.87056104 21 48 C20.61908203 46.76636719 20.61908203 46.76636719 20.23046875 45.5078125 C19.88628906 44.39148438 19.54210937 43.27515625 19.1875 42.125 C18.81496094 40.93132812 18.44242188 39.73765625 18.05859375 38.5078125 C17.44470051 36.47358324 16.85868493 34.42966254 16.34765625 32.3671875 C13.87630232 22.57868761 8.30732755 13.89861262 1 7 C0 6 0 6 -0.0625 2.9375 C-0.0315625 1.4834375 -0.0315625 1.4834375 0 0 Z " fill="#00B8CA" transform="translate(196,95)"/>
<path d="M0 0 C3 2 3 2 3.46875 3.85546875 C3.58497338 12.52863855 1.15174084 24.43594409 -5 31 C-5.66 31 -6.32 31 -7 31 C-6.54247354 26.51624069 -5.60498599 23.10550673 -3.69921875 19.04296875 C-2.26964466 14.86605675 -2.22974388 10.38097807 -2 6 C-17.6650851 7.98378807 -30.4528763 14.63734021 -42.703125 24.46875 C-45.18152079 26.12101386 -47.06814959 26.62572122 -50 27 C-50.21972656 24.68139648 -50.21972656 24.68139648 -50 22 C-48.53808594 20.42602539 -48.53808594 20.42602539 -46.484375 19.09765625 C-45.73381836 18.60265625 -44.98326172 18.10765625 -44.20996094 17.59765625 C-43.39817383 17.09105469 -42.58638672 16.58445312 -41.75 16.0625 C-40.92532227 15.53398438 -40.10064453 15.00546875 -39.25097656 14.4609375 C-27.80779759 7.22237837 -14.08396109 -1.15052076 0 0 Z " fill="#00BACB" transform="translate(167,65)"/>
<path d="M0 0 C0.66 0 1.32 0 2 0 C1.57923719 5.08237182 0.89829352 9.25426619 -1 14 C-1.45692478 16.99031885 -1.75046541 19.98588476 -2 23 C13.87630617 20.06334221 28.63977898 12.3030036 41.18359375 2.25 C43 1 43 1 45.25 1.3125 C45.8275 1.539375 46.405 1.76625 47 2 C46.91015625 3.703125 46.91015625 3.703125 46 6 C43.83825839 7.76297374 41.77474219 9.25685115 39.4375 10.75 C38.77000732 11.18393066 38.10251465 11.61786133 37.41479492 12.06494141 C25.11469717 19.89605621 10.01197409 29.15476724 -5 28 C-7.26497694 19.83512345 -6.00155749 11.84357615 -3 4 C-1.51953125 1.67578125 -1.51953125 1.67578125 0 0 Z " fill="#00C4D3" transform="translate(146,173)"/>
<path d="M0 0 C8.98564719 -0.33143781 15.9700623 0.58353426 24 5 C24 5.66 24 6.32 24 7 C23.14277344 6.86722656 22.28554687 6.73445313 21.40234375 6.59765625 C19.68724609 6.33275391 19.68724609 6.33275391 17.9375 6.0625 C16.81214844 5.88847656 15.68679687 5.71445313 14.52734375 5.53515625 C11.02092008 5.00317392 7.51160069 4.49654481 4 4 C8.20346515 19.19714325 14.17169731 32.63481409 23.43359375 45.44921875 C25.02699117 48.0439532 25.61649997 50.00221807 26 53 C23.68359375 53.23999023 23.68359375 53.23999023 21 53 C19.41015625 51.39868164 19.41015625 51.39868164 18.0625 49.16015625 C17.30839844 47.93522461 17.30839844 47.93522461 16.5390625 46.68554688 C16.03117187 45.81994141 15.52328125 44.95433594 15 44.0625 C14.49210937 43.23169922 13.98421875 42.40089844 13.4609375 41.54492188 C11.94421113 39.0462124 10.46531574 36.52915819 9 34 C8.5356958 33.20295654 8.0713916 32.40591309 7.59301758 31.5847168 C1.77866689 21.39646422 -0.76321806 11.76627849 0 0 Z " fill="#00BCCC" transform="translate(88,118)"/>
<path d="M0 0 C0.66 0.33 1.32 0.66 2 1 C-9.39675462 10.80926489 -21.60135662 19.14747137 -35 26 C-29.49501434 30.45878929 -22.95894357 32.10782775 -16 33 C-17.85538432 35.48264948 -18.81820256 35.97095114 -21.93359375 36.46875 C-31.49364401 36.55401243 -39.68900045 35.11732213 -47.3984375 29.140625 C-49 27 -49 27 -49.23828125 24.515625 C-47.3025025 20.58300193 -44.06338981 19.51330945 -40.1875 17.75 C-39.46240234 17.399375 -38.73730469 17.04875 -37.99023438 16.6875 C-34.6802692 15.11276817 -31.58716585 13.80655221 -28 13 C-29.60564557 14.76621013 -30.76707699 15.90537503 -33 16.8125 C-35.92097063 18.54682631 -36.67667249 20.95634674 -38 24 C-34.9254644 23.2236068 -34.9254644 23.2236068 -33 21 C-31.989375 20.5875 -30.97875 20.175 -29.9375 19.75 C-25.20273637 17.79923817 -21.19604831 14.89844682 -17 12 C-15.48038876 10.99814387 -13.95956774 9.99812015 -12.4375 9 C-8.16807511 6.1587278 -4.0657388 3.12408267 0 0 Z M-41 26 C-42.485 27.98 -42.485 27.98 -44 30 C-42.68 29.34 -41.36 28.68 -40 28 C-40.33 27.34 -40.66 26.68 -41 26 Z " fill="#00A2B9" transform="translate(218,201)"/>
<path d="M0 0 C3.99928739 3.74219035 7.01829109 7.66743183 10 12.25 C10.43425293 12.9102417 10.86850586 13.5704834 11.31591797 14.25073242 C20 27.56686796 20 27.56686796 20 31 C20.66 31 21.32 31 22 31 C24.29561809 24.40620337 26.22089072 17.75052102 28 11 C28.66 11.33 29.32 11.66 30 12 C32.62531979 19.87595936 31.59687475 28.40731041 28.1328125 35.83203125 C27.75898438 36.54746094 27.38515625 37.26289062 27 38 C26.68804687 38.64324219 26.37609375 39.28648438 26.0546875 39.94921875 C25.125 41.625 25.125 41.625 23 44 C19.75 44.375 19.75 44.375 17 44 C17.33 43.34 17.66 42.68 18 42 C19.32 42 20.64 42 22 42 C22.43872206 37.61277939 22.54174868 35.67139794 19.71484375 32.16796875 C19.25940186 31.65266602 18.80395996 31.13736328 18.3347168 30.60644531 C16.25021038 28.09756435 14.80137862 25.2982687 13.25 22.4375 C9.78918402 16.16139134 5.88071592 10.35504571 1.6875 4.546875 C0 2 0 2 0 0 Z " fill="#007D94" transform="translate(228,74)"/>
<path d="M0 0 C6.60925175 -0.73436131 10.31698475 0.84377572 15.99609375 4.19921875 C18.42907624 6.38558313 18.70014818 7.79976326 19 11 C16.71296692 12.19725883 14.42115138 13.38297018 12.125 14.5625 C11.47402344 14.90474609 10.82304687 15.24699219 10.15234375 15.59960938 C8.46470143 16.46082891 6.73420407 17.23686703 5 18 C4.34 17.67 3.68 17.34 3 17 C2.375 13.9375 2.375 13.9375 2 11 C2.99 10.34 3.98 9.68 5 9 C5 8.34 5 7.68 5 7 C3.02 6.01 1.04 5.02 -1 4 C-0.67 2.68 -0.34 1.36 0 0 Z " fill="#00BAD1" transform="translate(121,31)"/>
<path d="M0 0 C3 2 3 2 3.46875 3.85546875 C3.58497338 12.52863855 1.15174084 24.43594409 -5 31 C-5.66 31 -6.32 31 -7 31 C-6.54247354 26.51624069 -5.60498599 23.10550673 -3.69921875 19.04296875 C-2.26964466 14.86605675 -2.22974388 10.38097807 -2 6 C-2.99 6.165 -3.98 6.33 -5 6.5 C-9.02732942 7.08474517 -12.93474623 7.07132024 -17 7 C-16 4 -16 4 -13.92578125 2.83203125 C-4.84811417 -0.70948012 -4.84811417 -0.70948012 0 0 Z " fill="#00BECB" transform="translate(167,65)"/>
<path d="M0 0 C3.19721991 0.74353951 3.45855222 1.27044807 5.1875 3.9375 C7.64971808 8.27162519 9.63659541 12.81390022 11.57421875 17.40234375 C12.48382786 19.77292962 12.48382786 19.77292962 14.6875 20.625 C15.3203125 22.47265625 15.3203125 22.47265625 15.8125 24.6875 C15.98007813 25.42097656 16.14765625 26.15445313 16.3203125 26.91015625 C16.44148438 27.47605469 16.56265625 28.04195312 16.6875 28.625 C14.42471043 26.53256709 12.9504779 24.55409426 11.53125 21.82421875 C11.14839844 21.09396484 10.76554687 20.36371094 10.37109375 19.61132812 C9.98050781 18.85271484 9.58992188 18.09410156 9.1875 17.3125 C8.60162109 16.19198242 8.60162109 16.19198242 8.00390625 15.04882812 C5.85528792 10.9288344 3.75231917 6.78772839 1.6875 2.625 C0.6975 2.955 -0.2925 3.285 -1.3125 3.625 C-0.9825 5.935 -0.6525 8.245 -0.3125 10.625 C0.6775 10.955 1.6675 11.285 2.6875 11.625 C4.15454554 15.21111131 5.01534675 18.8161316 5.6875 22.625 C5.089375 21.861875 4.49125 21.09875 3.875 20.3125 C2.21349023 18.27121657 0.56145061 16.45599472 -1.3125 14.625 C-1.65023437 15.16769531 -1.98796875 15.71039063 -2.3359375 16.26953125 C-2.78195313 16.98496094 -3.22796875 17.70039063 -3.6875 18.4375 C-4.12835938 19.14519531 -4.56921875 19.85289062 -5.0234375 20.58203125 C-6.09438476 22.27932039 -7.19926239 23.95514358 -8.3125 25.625 C-10.19740322 21.85519357 -9.82489077 17.72969565 -9.3125 13.625 C-5.08725162 1.37493287 -5.08725162 1.37493287 0 0 Z " fill="#0091A8" transform="translate(61.3125,147.375)"/>
<path d="M0 0 C4.36279592 4.7783003 6.1875 11.18905148 6.1875 17.5625 C6.0946875 19.2640625 6.0946875 19.2640625 6 21 C3.69 21 1.38 21 -1 21 C-1 21.66 -1 22.32 -1 23 C1.97 23 4.94 23 8 23 C8 23.33 8 23.66 8 24 C-1.27545141 24.74006261 -7.67993235 22.98594872 -16 19 C-17.37264151 18.47298232 -18.74722793 17.95095543 -20.125 17.4375 C-23 16 -23 16 -24.4375 13.8125 C-24.623125 13.214375 -24.80875 12.61625 -25 12 C-20.6852555 12.56002583 -17.29644456 13.64190506 -13.375 15.5 C-7.24862004 18.16397725 -1.63668874 18.87056104 5 19 C4.58427734 17.69675781 4.58427734 17.69675781 4.16015625 16.3671875 C3.79792969 15.21476563 3.43570313 14.06234375 3.0625 12.875 C2.70285156 11.73804688 2.34320313 10.60109375 1.97265625 9.4296875 C1.08101661 6.28567301 0.46648986 3.23105607 0 0 Z " fill="#0093A5" transform="translate(212,124)"/>
<path d="M0 0 C3 1 3 1 4.16796875 3.3359375 C6.58308114 10.53500815 7.3993796 16.41178767 7 24 C3.37 24 -0.26 24 -4 24 C-4 23.34 -4 22.68 -4 22 C-1.69 22 0.62 22 3 22 C1.92423459 15.8772926 0.7854062 9.80812681 -0.73046875 3.77734375 C-1 2 -1 2 0 0 Z " fill="#00CBD6" transform="translate(215,123)"/>
<path d="M0 0 C0.66 0.33 1.32 0.66 2 1 C0.9275 1.515625 -0.145 2.03125 -1.25 2.5625 C-5.51111462 4.97170163 -6.77679713 7.7069186 -9 12 C-10.9375 14.5 -10.9375 14.5 -13 16 C-15.75 15.75 -15.75 15.75 -18 15 C-18.625 12.625 -18.625 12.625 -19 10 C-16.65734849 7.65734849 -14.37656592 7.01883405 -11.30078125 5.93359375 C-7.96608558 4.58046596 -4.95528073 2.75337577 -1.8828125 0.890625 C-1.26148438 0.59671875 -0.64015625 0.3028125 0 0 Z " fill="#00BBD2" transform="translate(188,214)"/>
<path d="M0 0 C2.8125 0.5 2.8125 0.5 4.08203125 1.89453125 C7.19272876 6.74326927 9.46270506 11.98110448 11.69921875 17.27734375 C12.60882786 19.64792962 12.60882786 19.64792962 14.8125 20.5 C15.4453125 22.34765625 15.4453125 22.34765625 15.9375 24.5625 C16.10507813 25.29597656 16.27265625 26.02945313 16.4453125 26.78515625 C16.56648438 27.35105469 16.68765625 27.91695312 16.8125 28.5 C14.54971043 26.40756709 13.0754779 24.42909426 11.65625 21.69921875 C11.27339844 20.96896484 10.89054687 20.23871094 10.49609375 19.48632812 C9.91021484 18.3484082 9.91021484 18.3484082 9.3125 17.1875 C8.92191406 16.44048828 8.53132813 15.69347656 8.12890625 14.92382812 C5.98028792 10.8038344 3.87731917 6.66272839 1.8125 2.5 C0.8225 2.83 -0.1675 3.16 -1.1875 3.5 C-0.8575 5.81 -0.5275 8.12 -0.1875 10.5 C0.8025 10.83 1.7925 11.16 2.8125 11.5 C2.4825 12.49 2.1525 13.48 1.8125 14.5 C1.8125 13.84 1.8125 13.18 1.8125 12.5 C0.6059375 12.7784375 0.6059375 12.7784375 -0.625 13.0625 C-1.470625 13.206875 -2.31625 13.35125 -3.1875 13.5 C-4.1875 12.5 -4.1875 12.5 -4.375 8.6875 C-4.3404819 4.84218347 -4.24985836 0.9713962 0 0 Z " fill="#0097AE" transform="translate(61.1875,147.5)"/>
<path d="M0 0 C1.32 0 2.64 0 4 0 C4 3.3 4 6.6 4 10 C4.99 9.67 5.98 9.34 7 9 C4.17849737 21.01276121 4.17849737 21.01276121 0 26 C-0.66 26 -1.32 26 -2 26 C-1.54247354 21.51624069 -0.60498599 18.10550673 1.30078125 14.04296875 C2.73035534 9.86605675 2.77025612 5.38097807 3 1 C2.01 0.67 1.02 0.34 0 0 Z " fill="#009DB2" transform="translate(162,70)"/>
<path d="M0 0 C16.66342326 0.23202235 16.66342326 0.23202235 21.4609375 3.23046875 C21.4609375 3.89046875 21.4609375 4.55046875 21.4609375 5.23046875 C20.8009375 4.90046875 20.1409375 4.57046875 19.4609375 4.23046875 C15.60032717 2.94359864 12.51943467 3.09289257 8.4609375 3.23046875 C8.1309375 4.22046875 7.8009375 5.21046875 7.4609375 6.23046875 C8.7809375 6.56046875 10.1009375 6.89046875 11.4609375 7.23046875 C9.4609375 8.23046875 9.4609375 8.23046875 7.21875 7.5234375 C5.91550781 6.97623047 5.91550781 6.97623047 4.5859375 6.41796875 C3.72226563 6.06089844 2.85859375 5.70382813 1.96875 5.3359375 C-0.2386831 4.36287898 -2.39394548 3.33295913 -4.5390625 2.23046875 C-2.5390625 0.23046875 -2.5390625 0.23046875 0 0 Z " fill="#005B73" transform="translate(112.5390625,28.76953125)"/>
<path d="M0 0 C0 3.90838866 -1.50567876 5.11594107 -4 8 C-3.34 8.33 -2.68 8.66 -2 9 C-2.99 9.33 -3.98 9.66 -5 10 C-5.70151152 11.3153341 -6.36525925 12.65117592 -7 14 C-8.5 15.75 -8.5 15.75 -10 17 C-10.66 17 -11.32 17 -12 17 C-13.7143618 18.95927063 -15.38405168 20.95880212 -17 23 C-17.33 22.34 -17.66 21.68 -18 21 C-12.4487655 13.61025376 -6.54064864 6.54064864 0 0 Z " fill="#00A2B7" transform="translate(78,93)"/>
<path d="M0 0 C0.66 0.33 1.32 0.66 2 1 C-3.9928411 6.15807945 -10.1206608 10.9169744 -16.6875 15.3125 C-17.59447632 15.92424072 -17.59447632 15.92424072 -18.51977539 16.54833984 C-22.85625757 19.40803598 -27.32044177 21.74535066 -32 24 C-32 23.01 -32 22.02 -32 21 C-31.25234375 20.60167969 -30.5046875 20.20335937 -29.734375 19.79296875 C-28.74953125 19.26316406 -27.7646875 18.73335937 -26.75 18.1875 C-25.77546875 17.66542969 -24.8009375 17.14335937 -23.796875 16.60546875 C-21.35586084 15.20427208 -19.21924762 13.71900738 -17 12 C-15.58939226 11.05340796 -14.1724572 10.11619058 -12.75 9.1875 C-8.36949657 6.28895793 -4.16412588 3.19968256 0 0 Z " fill="#005A72" transform="translate(218,201)"/>
<path d="M0 0 C0.33 0 0.66 0 1 0 C1.33 2.64 1.66 5.28 2 8 C3.32 6.68 4.64 5.36 6 4 C5.34 8.95 4.68 13.9 4 19 C2.68 19 1.36 19 0 19 C-1.59456558 12.82105839 -1.59456558 6.17894161 0 0 Z " fill="#00445B" transform="translate(51,163)"/>
<path d="M0 0 C2.31890817 1.09213094 4.62949748 2.19775048 6.9375 3.3125 C7.59685547 3.62123047 8.25621094 3.92996094 8.93554688 4.24804688 C10.66276021 5.08950978 12.3360527 6.03947665 14 7 C14.33 7.99 14.66 8.98 15 10 C9.69981613 9.40644629 5.41863107 7.62627368 0.625 5.4375 C-0.11105469 5.10814453 -0.84710938 4.77878906 -1.60546875 4.43945312 C-3.40644557 3.63252195 -5.20362181 2.8171174 -7 2 C-3.98968256 1.06576355 -3.13349732 0.95550089 0 2 C0 1.34 0 0.68 0 0 Z " fill="#004C62" transform="translate(112,123)"/>
<path d="M0 0 C3.99928739 3.74219035 7.01829109 7.66743183 10 12.25 C10.43425293 12.9102417 10.86850586 13.5704834 11.31591797 14.25073242 C20 27.56686796 20 27.56686796 20 31 C20.66 31.33 21.32 31.66 22 32 C20.12768555 31.69628906 20.12768555 31.69628906 18 31 C16.43661225 28.59662763 15.1131254 26.28957945 13.8125 23.75 C10.1862636 16.95396582 6.17449838 10.70708665 1.65234375 4.4765625 C0 2 0 2 0 0 Z " fill="#006178" transform="translate(228,74)"/>
<path d="M0 0 C2.8203125 0.2421875 2.8203125 0.2421875 6.125 0.875 C7.22070312 1.07867187 8.31640625 1.28234375 9.4453125 1.4921875 C10.28835937 1.65976563 11.13140625 1.82734375 12 2 C10.92578125 3.48046875 10.92578125 3.48046875 9 5 C5.85546875 5.36328125 5.85546875 5.36328125 2.1875 5.3125 C0.98480469 5.30863281 -0.21789062 5.30476562 -1.45703125 5.30078125 C-4.94693751 5.00450475 -7.74274974 4.25202116 -11 3 C-8.66229203 2.30734579 -6.83200144 2.00399997 -4.375 2.0625 C-1.80875196 2.26759225 -1.80875196 2.26759225 0 0 Z " fill="#006D84" transform="translate(190,232)"/>
<path d="M0 0 C1.32963547 5.92292164 0.71156055 8.78546048 -2 14 C-3 15 -3 15 -6.0625 15.0625 C-7.031875 15.041875 -8.00125 15.02125 -9 15 C-8.67 14.34 -8.34 13.68 -8 13 C-6.68 13 -5.36 13 -4 13 C-3.70437633 7.67829506 -3.70437633 7.67829506 -6 3 C-1.125 0 -1.125 0 0 0 Z " fill="#00A4BB" transform="translate(254,103)"/>
<path d="M0 0 C0.66 0.33 1.32 0.66 2 1 C3.12178787 4.3653636 3.16771159 7.0203755 3.1875 10.5625 C3.20167969 11.71878906 3.21585937 12.87507813 3.23046875 14.06640625 C3 17 3 17 1 19 C0.67 16.03 0.34 13.06 0 10 C-0.99 10.99 -1.98 11.98 -3 13 C-2.01 8.71 -1.02 4.42 0 0 Z " fill="#005970" transform="translate(256,85)"/>
<path d="M0 0 C2.64 0 5.28 0 8 0 C8 3 8 3 7 6 C7 7.32 7 8.64 7 10 C6.34 9.67 5.68 9.34 5 9 C5 8.34 5 7.68 5 7 C3.02 6.01 1.04 5.02 -1 4 C-0.67 2.68 -0.34 1.36 0 0 Z " fill="#0092A9" transform="translate(121,31)"/>
<path d="M0 0 C1.06528748 2.73019786 1.07998186 3.79298812 0.00390625 6.578125 C-0.47175781 7.45984375 -0.94742188 8.3415625 -1.4375 9.25 C-1.91058594 10.14203125 -2.38367188 11.0340625 -2.87109375 11.953125 C-3.24363281 12.62859375 -3.61617187 13.3040625 -4 14 C-4.33 13.01 -4.66 12.02 -5 11 C-5.66 11 -6.32 11 -7 11 C-5.72278474 6.00724943 -3.82669043 3.42388092 0 0 Z " fill="#004B62" transform="translate(153,162)"/>
<path d="M0 0 C3.125 0.375 3.125 0.375 6 1 C3.22237877 4.60062011 0.26008643 7.83047153 -3 11 C-3.99 10.67 -4.98 10.34 -6 10 C-5.34 9.34 -4.68 8.68 -4 8 C-3.01 8 -2.02 8 -1 8 C-1.20625 7.05125 -1.4125 6.1025 -1.625 5.125 C-1.74875 4.09375 -1.8725 3.0625 -2 2 C-1.34 1.34 -0.68 0.68 0 0 Z " fill="#00A8BF" transform="translate(129,33)"/>
<path d="M0 0 C0.66 0 1.32 0 2 0 C1.58846263 4.97093824 1.20399168 9.44508386 -1 14 C-1.33 12.68 -1.66 11.36 -2 10 C-2.66 10 -3.32 10 -4 10 C-2.99806563 6.20696275 -2.18975773 3.28463659 0 0 Z " fill="#00AAC1" transform="translate(146,173)"/>
<path d="M0 0 C1.98 0.99 3.96 1.98 6 3 C5.01 4.485 5.01 4.485 4 6 C2.39504433 5.88557539 0.79101881 5.75805306 -0.8125 5.625 C-1.70582031 5.55539063 -2.59914062 5.48578125 -3.51953125 5.4140625 C-6 5 -6 5 -9 3 C-7.6078125 3.0928125 -7.6078125 3.0928125 -6.1875 3.1875 C-3.01604897 3.30894264 -3.01604897 3.30894264 -1.125 1.5 C-0.75375 1.005 -0.3825 0.51 0 0 Z " fill="#008BA2" transform="translate(184,229)"/>
<path d="M0 0 C4.84659077 0.59104765 8.60748167 1.97944157 13 4 C12.01 5.485 12.01 5.485 11 7 C9.53633658 6.60246179 8.0791065 6.18118616 6.625 5.75 C5.81289062 5.51796875 5.00078125 5.2859375 4.1640625 5.046875 C1.54214546 3.7785108 1.00617682 2.67576692 0 0 Z " fill="#005C73" transform="translate(187,136)"/>
<path d="M0 0 C0.68620031 1.32338632 1.34786461 2.65949948 2 4 C2.433125 4.78375 2.86625 5.5675 3.3125 6.375 C4 9 4 9 2.625 12.3125 C2.08875 13.199375 1.5525 14.08625 1 15 C-1 13 -1 13 -1.23046875 10.72265625 C-1.21628906 9.84480469 -1.20210937 8.96695313 -1.1875 8.0625 C-1.18105469 7.18722656 -1.17460938 6.31195313 -1.16796875 5.41015625 C-1 3 -1 3 0 0 Z " fill="#007C93" transform="translate(53,158)"/>
<path d="M0 0 C0.33 1.32 0.66 2.64 1 4 C1.66 4 2.32 4 3 4 C2.4739075 7.78786597 1.61896089 10.17152224 -1 13 C-1.66 13 -2.32 13 -3 13 C-2.45144652 8.428721 -1.58255197 4.32564205 0 0 Z " fill="#007F97" transform="translate(163,83)"/>
<path d="M0 0 C1.10408203 0.01353516 1.10408203 0.01353516 2.23046875 0.02734375 C4.0287888 0.05069856 5.82693911 0.08656164 7.625 0.125 C7.625 0.455 7.625 0.785 7.625 1.125 C6.21347656 1.19847656 6.21347656 1.19847656 4.7734375 1.2734375 C2.90558594 1.38558594 2.90558594 1.38558594 1 1.5 C-0.22976562 1.56960937 -1.45953125 1.63921875 -2.7265625 1.7109375 C-6.21153855 2.1064487 -9.10549601 2.88761849 -12.375 4.125 C-11.715 4.785 -11.055 5.445 -10.375 6.125 C-12.025 6.125 -13.675 6.125 -15.375 6.125 C-15.25 4.25 -15.25 4.25 -14.375 2.125 C-9.52605927 -0.03008477 -5.18716867 -0.12194067 0 0 Z " fill="#002F47" transform="translate(251.375,66.875)"/>
<path d="M0 0 C8.57142857 0.85714286 8.57142857 0.85714286 12 3 C11.01 3.33 10.02 3.66 9 4 C9.33 4.66 9.66 5.32 10 6 C8.5164999 5.57742724 7.03823576 5.13643678 5.5625 4.6875 C4.73878906 4.44386719 3.91507813 4.20023438 3.06640625 3.94921875 C2.04353516 3.47935547 2.04353516 3.47935547 1 3 C0.67 2.01 0.34 1.02 0 0 Z " fill="#00A0B7" transform="translate(197,141)"/>
<path d="M0 0 C-1.20381448 2.49361571 -2.45428722 4.68143083 -4 7 C-4.14245897 9.76655324 -4.18769445 12.42653306 -4.125 15.1875 C-4.11597656 15.93708984 -4.10695313 16.68667969 -4.09765625 17.45898438 C-4.07412578 19.30612654 -4.03825561 21.15310412 -4 23 C-4.33 23 -4.66 23 -5 23 C-6.52258319 16.14837566 -7.7176676 7.97729051 -4.125 1.75 C-2 0 -2 0 0 0 Z " fill="#004054" transform="translate(85,112)"/>
<path d="M0 0 C1.60031344 3.20062687 0.03173691 5.72271806 -1 9 C-1.99 9 -2.98 9 -4 9 C-5.45034604 10.30456502 -5.45034604 10.30456502 -6.6875 12 C-7.450625 12.99 -8.21375 13.98 -9 15 C-9.33 14.34 -9.66 13.68 -10 13 C-9.52949219 12.39671875 -9.05898438 11.7934375 -8.57421875 11.171875 C-7.64029297 9.97304687 -7.64029297 9.97304687 -6.6875 8.75 C-6.07261719 7.96109375 -5.45773438 7.1721875 -4.82421875 6.359375 C-3.19620982 4.2537703 -1.59064137 2.13390657 0 0 Z " fill="#007B92" transform="translate(70,101)"/>
<path d="M0 0 C0.33 0.66 0.66 1.32 1 2 C1.66 2.33 2.32 2.66 3 3 C2.21718695 4.33855056 1.42348123 5.67073644 0.625 7 C0.18414062 7.7425 -0.25671875 8.485 -0.7109375 9.25 C-1.13632813 9.8275 -1.56171875 10.405 -2 11 C-2.66 11 -3.32 11 -4 11 C-3.48964169 6.6109185 -2.47785723 3.66291938 0 0 Z " fill="#004D64" transform="translate(159,94)"/>
<path d="M0 0 C0.66 0.33 1.32 0.66 2 1 C0.20963542 1.94401042 -1.58072917 2.88802083 -3.37109375 3.83203125 C-5.32267987 4.99019799 -5.32267987 4.99019799 -6 8 C-8.5625 9.6875 -8.5625 9.6875 -11 11 C-11 9.35 -11 7.7 -11 6 C-9.21385682 4.96953278 -7.42089982 3.95086764 -5.625 2.9375 C-4.62726563 2.36902344 -3.62953125 1.80054688 -2.6015625 1.21484375 C-1.74304688 0.81394531 -0.88453125 0.41304687 0 0 Z " fill="#009DB4" transform="translate(188,214)"/>
<path d="M0 0 C-1.30636994 2.61273988 -2.28409758 2.97236124 -5 4 C-8.25 4.125 -8.25 4.125 -11 4 C-10.67 3.01 -10.34 2.02 -10 1 C-6.34742296 -0.62336757 -3.80637601 -1.46399077 0 0 Z " fill="#00D8E2" transform="translate(161,68)"/>
<path d="M0 0 C2.31 0.66 4.62 1.32 7 2 C7 2.66 7 3.32 7 4 C7.66 4.33 8.32 4.66 9 5 C9 5.99 9 6.98 9 8 C7 7 7 7 5 6 C4.278125 5.71125 3.55625 5.4225 2.8125 5.125 C1 4 1 4 0.25 1.875 C0.1675 1.25625 0.085 0.6375 0 0 Z " fill="#003C53" transform="translate(180,131)"/>
<path d="M0 0 C1.98 0.99 3.96 1.98 6 3 C6 3.66 6 4.32 6 5 C1.28596212 4.52060632 -2.66579301 4.03165952 -7 2 C-3.98968256 1.06576355 -3.13349732 0.95550089 0 2 C0 1.34 0 0.68 0 0 Z " fill="#00778E" transform="translate(112,123)"/>
<path d="M0 0 C0.33 0 0.66 0 1 0 C1.33 2.64 1.66 5.28 2 8 C3.32 6.68 4.64 5.36 6 4 C4.375 10.75 4.375 10.75 1 13 C0 12 0 12 -0.09765625 9.27734375 C-0.08605469 8.17519531 -0.07445312 7.07304687 -0.0625 5.9375 C-0.05347656 4.83277344 -0.04445312 3.72804687 -0.03515625 2.58984375 C-0.02355469 1.73519531 -0.01195312 0.88054687 0 0 Z " fill="#005C74" transform="translate(51,163)"/>
<path d="M0 0 C1.32 0 2.64 0 4 0 C3.67 3.3 3.34 6.6 3 10 C2.01 9.34 1.02 8.68 0 8 C-0.40843923 5.28796348 -0.13336867 2.7562858 0 0 Z " fill="#00DBE4" transform="translate(88,120)"/>
<path d="M0 0 C1.63001953 0.01353516 1.63001953 0.01353516 3.29296875 0.02734375 C4.12441406 0.03894531 4.95585938 0.05054687 5.8125 0.0625 C5.8125 0.3925 5.8125 0.7225 5.8125 1.0625 C5.03003906 1.12308594 4.24757813 1.18367188 3.44140625 1.24609375 C2.42949219 1.32988281 1.41757813 1.41367187 0.375 1.5 C-0.63433594 1.58121094 -1.64367187 1.66242187 -2.68359375 1.74609375 C-5.12390779 1.79461468 -5.12390779 1.79461468 -6.1875 3.0625 C-5.1975 3.7225 -4.2075 4.3825 -3.1875 5.0625 C-5.1675 5.0625 -7.1475 5.0625 -9.1875 5.0625 C-9.1875 3.7425 -9.1875 2.4225 -9.1875 1.0625 C-5.90230525 -0.03256492 -3.45086585 -0.03710608 0 0 Z " fill="#00364E" transform="translate(115.1875,27.9375)"/>
<path d="M0 0 C2.31 0 4.62 0 7 0 C7 1.32 7 2.64 7 4 C3.98509443 5.00496852 1.95818308 5.10335303 -1.1875 5.0625 C-2.53908203 5.04896484 -2.53908203 5.04896484 -3.91796875 5.03515625 C-4.60503906 5.02355469 -5.29210937 5.01195312 -6 5 C-6 4.67 -6 4.34 -6 4 C-5.06027344 3.90912109 -5.06027344 3.90912109 -4.1015625 3.81640625 C-2.87566406 3.69072266 -2.87566406 3.69072266 -1.625 3.5625 C-0.81289062 3.48128906 -0.00078125 3.40007812 0.8359375 3.31640625 C3.04272805 3.10909886 3.04272805 3.10909886 5 2 C3.35 1.67 1.7 1.34 0 1 C0 0.67 0 0.34 0 0 Z " fill="#003C53" transform="translate(196,233)"/>
<path d="M0 0 C1.98 0.99 3.96 1.98 6 3 C6 3.99 6 4.98 6 6 C2.17902761 5.46930939 -0.06171403 4.50298434 -3 2 C-2.01 2 -1.02 2 0 2 C0 1.34 0 0.68 0 0 Z " fill="#002C44" transform="translate(127,131)"/>
<path d="M0 0 C1.125 1.75 1.125 1.75 2 4 C1.3125 6.1875 1.3125 6.1875 0 8 C-0.99 8.33 -1.98 8.66 -3 9 C-3.33 8.01 -3.66 7.02 -4 6 C-2.0625 2.8125 -2.0625 2.8125 0 0 Z " fill="#002B43" transform="translate(154,103)"/>
<path d="M0 0 C0 0.66 0 1.32 0 2 C-2.1875 3.5078125 -2.1875 3.5078125 -5 5.125 C-5.928125 5.66382813 -6.85625 6.20265625 -7.8125 6.7578125 C-8.534375 7.16773438 -9.25625 7.57765625 -10 8 C-10.33 7.01 -10.66 6.02 -11 5 C-9.54462432 4.16151196 -8.08559627 3.32936066 -6.625 2.5 C-5.81289062 2.0359375 -5.00078125 1.571875 -4.1640625 1.09375 C-2 0 -2 0 0 0 Z " fill="#007D94" transform="translate(197,217)"/>
<path d="M0 0 C2.0625 0.4375 2.0625 0.4375 4 1 C0.2632157 3.49118953 -1.74451819 3.2065226 -6.1875 3.125 C-7.45980469 3.10695312 -8.73210937 3.08890625 -10.04296875 3.0703125 C-11.50669922 3.03550781 -11.50669922 3.03550781 -13 3 C-13 2.67 -13 2.34 -13 2 C-12.14535156 1.93941406 -11.29070312 1.87882813 -10.41015625 1.81640625 C-8.75306641 1.69072266 -8.75306641 1.69072266 -7.0625 1.5625 C-5.96035156 1.48128906 -4.85820312 1.40007812 -3.72265625 1.31640625 C-1.08890097 1.29581916 -1.08890097 1.29581916 0 0 Z " fill="#00576F" transform="translate(198,234)"/>
<path d="M0 0 C0.66 0 1.32 0 2 0 C1.67 2.97 1.34 5.94 1 9 C0.67 7.68 0.34 6.36 0 5 C-0.99 5.33 -1.98 5.66 -3 6 C-2 4 -1 2 0 0 Z " fill="#00849B" transform="translate(146,173)"/>
<path d="M0 0 C0 3.58912412 -0.66436554 4.10857029 -3 6.6875 C-3.556875 7.31011719 -4.11375 7.93273437 -4.6875 8.57421875 C-5.120625 9.04472656 -5.55375 9.51523438 -6 10 C-6 6.36672806 -5.04413589 4.95264073 -3 2 C-2.01 1.34 -1.02 0.68 0 0 Z " fill="#0089A0" transform="translate(242,159)"/>
<path d="M0 0 C0.33 0.66 0.66 1.32 1 2 C0.06553465 4.03144641 -0.93224776 6.03533587 -2 8 C-2.99 8 -3.98 8 -5 8 C-5 5 -5 5 -2.5 2.3125 C-1.675 1.549375 -0.85 0.78625 0 0 Z " fill="#00344B" transform="translate(157,156)"/>
<path d="M0 0 C0.625 1.8125 0.625 1.8125 1 4 C0.01 5.485 0.01 5.485 -1 7 C-1.66 7 -2.32 7 -3 7 C-3.66 8.32 -4.32 9.64 -5 11 C-5 7.58678765 -4.33132534 6.60527115 -2.5 3.8125 C-2.0359375 3.09707031 -1.571875 2.38164062 -1.09375 1.64453125 C-0.7328125 1.10183594 -0.371875 0.55914062 0 0 Z " fill="#005067" transform="translate(260,133)"/>
<path d="M0 0 C2.64 0 5.28 0 8 0 C7.38125 0.28875 6.7625 0.5775 6.125 0.875 C3.86674235 1.93720042 3.86674235 1.93720042 2 4 C1.01 4 0.02 4 -1 4 C-0.67 2.68 -0.34 1.36 0 0 Z " fill="#008299" transform="translate(121,31)"/>
<path d="M0 0 C3.39417765 3.12621626 5.6062718 5.56541027 7 10 C5.82174642 9.09827532 4.65768423 8.17798498 3.5 7.25 C2.8503125 6.73953125 2.200625 6.2290625 1.53125 5.703125 C0 4 0 4 0 0 Z " fill="#005067" transform="translate(74,181)"/>
<path d="M0 0 C-0.33 2.64 -0.66 5.28 -1 8 C-1.33 7.01 -1.66 6.02 -2 5 C-2.66 5 -3.32 5 -4 5 C-3.625 3.0625 -3.625 3.0625 -3 1 C-1 0 -1 0 0 0 Z " fill="#00677F" transform="translate(150,168)"/>
<path d="M0 0 C1.98 0.66 3.96 1.32 6 2 C6 2.66 6 3.32 6 4 C3.03 3.67 0.06 3.34 -3 3 C-2.01 2.67 -1.02 2.34 0 2 C0 1.34 0 0.68 0 0 Z " fill="#00A7BE" transform="translate(106,121)"/>
<path d="M0 0 C3.77545388 1.09068668 6.47043472 1.9083091 9 5 C4.98525763 5 3.18024863 3.33218233 0 1 C0 0.67 0 0.34 0 0 Z " fill="#005068" transform="translate(157,28)"/>
<path d="M0 0 C2.31 0.33 4.62 0.66 7 1 C6.01 2.485 6.01 2.485 5 4 C2.525 3.01 2.525 3.01 0 2 C0 1.34 0 0.68 0 0 Z " fill="#007A92" transform="translate(193,139)"/>
</svg>
